<?xml version="1.0" standalone="no"?>
<!DOCTYPE svg PUBLIC "-//W3C//DTD SVG 20010904//EN"
 "http://www.w3.org/TR/2001/REC-SVG-20010904/DTD/svg10.dtd">
<svg version="1.0" xmlns="http://www.w3.org/2000/svg"
 width="1024.000000pt" height="1024.000000pt" viewBox="0 0 1024.000000 1024.000000"
 preserveAspectRatio="xMidYMid meet">
<metadata>
Created by potrace 1.16, written by Peter Selinger 2001-2019
</metadata>
<g transform="translate(0.000000,1024.000000) scale(0.100000,-0.100000)"
fill="#000000" stroke="none">
<path d="M0 5120 l0 -5120 5120 0 5120 0 0 5120 0 5120 -5120 0 -5120 0 0
-5120z m2618 3090 c192 -68 545 -347 803 -636 137 -154 159 -180 159 -192 0
-7 9 -8 28 -2 253 82 413 115 632 130 87 6 935 10 2133 10 2171 0 2019 4 2066
-56 41 -52 21 -142 -39 -178 -26 -15 -151 -16 -1422 -17 -1943 -2 -2795 -11
-2918 -33 -121 -22 -228 -48 -362 -92 -180 -57 -195 -52 -341 124 -245 295
-569 584 -765 681 -57 28 -76 33 -90 25 -29 -18 -90 -154 -126 -282 -60 -207
-71 -307 -71 -642 0 -327 12 -428 77 -674 l31 -119 -17 -70 c-9 -39 -61 -183
-115 -321 -146 -370 -202 -571 -237 -846 -22 -178 -15 -438 15 -592 69 -343
243 -677 525 -1004 504 -585 1226 -992 1956 -1103 258 -39 357 -41 2121 -41
l1716 0 34 -23 c81 -55 75 -153 -13 -207 -33 -20 -50 -20 -1453 -18 -1891 3
-2257 8 -2440 37 -561 88 -1120 334 -1597 701 -148 114 -470 431 -588 580
-191 240 -360 538 -433 760 -83 249 -112 453 -104 710 11 348 92 684 271 1127
119 296 114 266 77 413 -57 232 -81 432 -81 685 0 437 82 815 225 1035 89 138
200 180 343 130z m5789 -1370 c35 -21 63 -66 63 -102 0 -33 -35 -85 -72 -108
-33 -20 -54 -20 -1744 -20 l-1711 0 -34 23 c-61 41 -76 105 -39 165 40 65 -83
61 1795 62 1679 0 1711 0 1742 -20z m20 -672 c31 -31 38 -45 38 -78 0 -42 -23
-81 -66 -111 -23 -17 -116 -18 -1739 -20 -1204 -2 -1721 1 -1735 8 -47 26 -70
63 -70 114 0 42 5 53 33 81 l32 33 298 5 c163 3 944 6 1734 5 l1438 0 37 -37z
m-4582 -452 c72 -33 147 -103 183 -171 37 -70 38 -166 2 -218 -39 -58 -111
-89 -207 -89 -86 -1 -183 21 -251 55 -122 61 -187 228 -132 337 56 111 258
153 405 86z m4577 -193 c28 -25 48 -67 48 -100 0 -39 -33 -89 -71 -109 -30
-15 -158 -16 -1738 -12 -1531 4 -1709 6 -1736 20 -52 28 -70 55 -70 109 0 42
5 53 33 81 l32 33 1713 5 c941 3 1725 2 1741 -2 16 -4 38 -15 48 -25z m-50
-633 c42 -12 83 -56 93 -100 8 -38 -19 -95 -58 -124 -28 -21 -33 -21 -1270
-23 -683 -1 -1316 0 -1407 4 -163 6 -165 7 -192 34 -25 24 -28 35 -28 94 0 60
3 69 29 96 l29 29 1384 0 c912 0 1396 -4 1420 -10z m-3347 -95 c76 -21 107
-37 156 -82 85 -77 108 -180 66 -295 -56 -154 -143 -252 -281 -317 -44 -21
-89 -41 -98 -44 -16 -6 -17 -16 -12 -84 9 -141 9 -140 65 -169 98 -49 188 -65
380 -67 158 -2 179 -4 198 -21 31 -28 27 -75 -11 -132 -37 -55 -77 -79 -157
-94 -69 -13 -208 -13 -291 1 -86 13 -236 64 -282 95 l-38 24 -107 -54 c-155
-77 -223 -96 -350 -96 -133 0 -225 20 -338 75 -153 74 -258 175 -326 312 -26
52 -30 68 -24 105 14 84 44 118 105 118 26 0 49 -18 149 -119 90 -90 133 -126
182 -150 71 -34 178 -61 252 -61 98 0 266 48 318 91 13 11 18 40 23 117 7 100
6 104 -14 109 -70 18 -165 77 -240 149 -65 62 -89 94 -122 160 -54 110 -60
165 -24 238 52 107 168 166 406 210 59 11 356 -3 415 -19z m3373 -578 c98 -54
90 -179 -15 -223 -50 -22 -2641 -21 -2683 1 -67 35 -92 120 -53 186 36 61 -38
58 1403 56 1245 -2 1317 -3 1348 -20z m6 -660 c91 -60 81 -174 -20 -219 -44
-19 -69 -19 -1292 -16 -1144 3 -1250 4 -1278 20 -38 21 -54 55 -54 118 0 37 6
56 24 77 l24 28 1179 6 c1496 7 1383 8 1417 -14z m-6 -646 c68 -35 90 -105 52
-166 -43 -70 66 -65 -1509 -65 -1565 0 -1471 -4 -1511 62 -36 60 -20 135 39
171 24 15 152 16 1459 17 1390 0 1434 -1 1470 -19z"/>
</g>
</svg>
