<?xml version="1.0" standalone="no"?>
<!DOCTYPE svg PUBLIC "-//W3C//DTD SVG 20010904//EN"
 "http://www.w3.org/TR/2001/REC-SVG-20010904/DTD/svg10.dtd">
<svg version="1.0" xmlns="http://www.w3.org/2000/svg"
 width="1365.000000pt" height="1365.000000pt" viewBox="0 0 1365.000000 1365.000000"
 preserveAspectRatio="xMidYMid meet">
<metadata>
Created by potrace 1.16, written by Peter Selinger 2001-2019
</metadata>
<g transform="translate(0.000000,1365.000000) scale(0.100000,-0.100000)"
fill="#000000" stroke="none">
<path d="M3233 10949 c-228 -88 -417 -531 -477 -1123 -47 -453 -23 -873 71
-1277 59 -252 59 -247 -71 -579 -277 -702 -363 -1060 -373 -1556 -8 -356 15
-541 102 -837 113 -382 374 -840 678 -1192 118 -137 509 -522 641 -632 541
-450 1301 -814 2001 -957 375 -77 460 -79 3131 -80 l2231 -1 41 29 c52 36 87
103 79 153 -7 42 -45 94 -89 121 -33 20 -47 21 -2373 25 -2367 5 -2452 6
-2710 42 -885 125 -1738 552 -2408 1204 -449 438 -739 878 -895 1361 -82 255
-108 459 -99 798 10 405 83 729 282 1252 121 317 177 474 200 555 l22 80 -47
190 c-62 247 -78 343 -90 550 -17 300 -7 724 21 894 37 225 140 534 209 631
29 40 59 39 152 -9 271 -139 653 -480 1025 -916 61 -72 130 -144 154 -160 65
-45 131 -41 340 23 192 58 367 99 483 113 178 20 1137 31 3361 37 2327 7 2330
7 2369 28 72 37 102 130 68 207 -30 67 -50 76 -193 87 -160 12 -5118 13 -5369
0 -282 -14 -481 -49 -770 -136 l-145 -43 -20 27 c-55 75 -245 284 -379 418
-356 355 -726 623 -939 680 -72 19 -153 17 -214 -7z"/>
<path d="M6670 9129 c-58 -4 -117 -12 -132 -18 -38 -14 -68 -78 -68 -143 0
-50 2 -54 55 -105 l55 -53 2127 1 c1171 0 2205 4 2298 8 155 6 174 9 203 30
40 28 82 98 82 137 0 38 -44 106 -84 130 -30 18 -94 19 -2231 20 -1210 1
-2247 -2 -2305 -7z"/>
<path d="M6779 8263 l-215 -3 -43 -44 c-32 -33 -44 -54 -48 -85 -8 -57 19
-124 64 -158 l35 -27 1372 -4 c754 -2 1787 1 2296 5 1040 10 966 4 1015 86 17
30 25 58 25 91 0 42 -5 52 -46 96 l-47 50 -2096 -2 c-1153 -2 -2193 -4 -2312
-5z"/>
<path d="M4790 7645 c-67 -19 -91 -30 -137 -64 -162 -118 -97 -420 112 -525
91 -45 200 -69 315 -70 135 -1 195 18 261 84 60 60 78 128 59 224 -17 86 -43
131 -124 212 -74 74 -145 117 -231 140 -62 17 -195 16 -255 -1z"/>
<path d="M7153 7393 l-602 -3 -35 -42 c-63 -73 -61 -157 4 -220 35 -33 46 -37
117 -45 43 -4 1084 -8 2313 -8 l2235 0 32 23 c35 25 73 95 73 136 0 56 -56
134 -113 155 -26 10 -2125 12 -4024 4z"/>
<path d="M7387 6492 l-38 -39 0 -88 c0 -87 0 -89 34 -123 34 -34 34 -34 163
-42 149 -11 3314 -12 3511 -1 129 6 133 7 163 36 96 91 78 211 -40 276 -21 12
-331 14 -1890 17 l-1865 3 -38 -39z"/>
<path d="M6025 6391 c-191 -47 -292 -96 -368 -180 -102 -113 -107 -209 -19
-391 39 -81 59 -108 136 -185 103 -103 210 -178 300 -211 l61 -22 -2 -121 c-1
-75 -7 -132 -15 -149 -17 -35 -89 -73 -203 -108 -79 -24 -107 -28 -230 -28
-132 0 -146 1 -235 31 -128 44 -169 72 -332 229 -77 74 -151 142 -164 151 -31
20 -89 19 -121 -3 -28 -18 -58 -80 -67 -139 -18 -108 136 -337 310 -461 88
-63 255 -140 354 -163 172 -41 368 -37 510 9 36 12 130 53 209 91 l143 69 62
-34 c72 -40 199 -86 311 -112 62 -15 119 -19 255 -19 189 0 252 11 320 57 73
49 129 154 114 213 -13 53 -38 59 -278 66 -122 4 -252 12 -290 19 -118 19
-242 67 -279 108 -19 21 -41 184 -35 257 3 35 5 37 93 77 198 88 304 186 386
353 26 55 54 124 60 154 16 77 7 166 -24 226 -28 57 -115 143 -173 173 -98 50
-265 72 -534 71 -122 -1 -162 -5 -255 -28z"/>
<path d="M7750 5640 c-80 -4 -157 -12 -172 -18 -32 -13 -63 -60 -73 -108 -9
-51 12 -114 53 -155 l37 -36 160 -6 c311 -13 2099 -19 2752 -9 654 9 662 10
697 31 101 63 106 194 9 268 l-36 28 -396 7 c-515 8 -2843 7 -3031 -2z"/>
<path d="M9062 4760 c-1268 -7 -1313 -8 -1333 -26 -12 -10 -27 -31 -35 -46
-19 -37 -18 -132 2 -175 29 -60 47 -66 242 -74 290 -13 3142 -11 3202 2 36 8
63 22 89 47 72 69 73 155 2 226 l-41 41 -103 6 c-119 8 -268 8 -2025 -1z"/>
<path d="M7977 3900 l-678 -5 -38 -41 c-62 -66 -63 -158 -3 -225 50 -54 26
-54 1997 -54 1918 0 1932 0 1982 47 33 31 57 100 49 142 -8 42 -46 90 -90 114
-27 14 -86 17 -491 23 -515 8 -1704 7 -2728 -1z"/>
</g>
</svg>
